<?xml version="1.0" encoding="utf-8"?><!-- Generator: Adobe Illustrator 17.0.0, SVG Export Plug-In . SVG Version: 6.00 Build 0)  --><!DOCTYPE svg PUBLIC "-//W3C//DTD SVG 1.1//EN" "http://www.w3.org/Graphics/SVG/1.1/DTD/svg11.dtd"><svg xmlns="http://www.w3.org/2000/svg" xmlns:xlink="http://www.w3.org/1999/xlink" viewBox="0 0 50 50" width="500px" height="500px"><line fill="none" stroke="#000000" stroke-width="2" stroke-linecap="round" stroke-linejoin="round" stroke-miterlimit="10" x1="40.525" y1="17" x2="17.553" y2="17"/><line fill="none" stroke="#000000" stroke-width="2" stroke-linecap="round" stroke-linejoin="round" stroke-miterlimit="10" x1="29" y1="43.707" x2="29" y2="32.077"/><path fill="none" stroke="#000000" stroke-width="2" stroke-linecap="round" stroke-linejoin="round" stroke-miterlimit="10" d="M41,49H17c0-2.93,12-5,12-5S41,46.07,41,49z"/><polyline fill="none" stroke="#000000" stroke-width="2" stroke-linecap="round" stroke-linejoin="round" stroke-miterlimit="10" points="13,12 29,31.462 45,12 14.876,12 "/><path fill="none" stroke="#000000" stroke-width="2.2" stroke-linecap="round" stroke-linejoin="round" stroke-miterlimit="10" d="M19.69,20.732C17.836,22.155,15.517,23,13,23C6.925,23,2,18.075,2,12S6.925,1,13,1c5.924,0,10.754,4.683,10.991,10.548"/><path d="M13.072,12.997c0,0-1.492,6.082-3.236,4.878c-1.744-1.205,2.589-5.252,2.589-5.252s-6.203,0.622-5.64-1.57c0.563-2.192,5.792,0.839,5.792,0.839s-2.471-5.611-0.248-5.849s0.992,5.769,0.992,5.769s4.438-4.059,5.484-2.044c1.047,2.014-5.179,2.726-5.179,2.726L13.072,12.997z"/></svg>