<?xml version="1.0"?><svg xmlns="http://www.w3.org/2000/svg" xmlns:xlink="http://www.w3.org/1999/xlink" viewBox="-27.56 -28.00 339.82 84.94" style="overflow: visible; width: 100%; height: 100%; position: absolute; left: 0px; top: 0px; transition: all 350ms ease-in-out 0s; backface-visibility: hidden; opacity: 1; transform: translate3d(0px, 0px, 0px) rotate3d(1, 1, 0, 0deg);" width="3832.3353293413174px" height="37583.954437107684px"><g transform="translate(0 0)"><g transform="translate(0 0)"><g transform="translate(0 0)"><g transform="translate(37.74328825374803 0)"><g transform="translate(0 0)"><g transform="scale(0.2986666666666667 0.2986666666666667) translate(-1 76)"><g transform="translate(0.000,0)" fill="#000000" stroke="#000000" stroke-width="0"><path d="M54.70,-70.00L54.70,-69.50L55.38,-69.39L56.69,-69.00L57.92,-68.31L59.04,-67.27L60.04,-65.81L60.88,-63.87L61.55,-61.37L62.02,-58.26L62.27,-54.47L62.30,-52.30L62.30,-14.80L20.80,-64.30L19.76,-65.51L18.25,-67.64L17.27,-69.33L16.90,-70.00L1.00,-70.00L1.79,-69.58L3.29,-68.65L4.75,-67.56L6.20,-66.29L7.69,-64.80L9.27,-63.07L10.10,-62.10L10.10,-15.70L10.06,-13.29L9.75,-9.29L9.16,-6.25L8.33,-4.03L7.29,-2.50L6.08,-1.51L4.72,-0.92L3.26,-0.60L2.50,-0.50L2.50,0.00L19.70,0.00L19.70,-0.50L19.02,-0.61L17.71,-1.00L16.48,-1.69L15.36,-2.73L14.36,-4.19L13.52,-6.13L12.85,-8.63L12.38,-11.74L12.13,-15.53L12.10,-17.70L12.10,-59.70L64.70,2.80L64.90,2.60L64.87,2.05L64.80,0.86L64.74,-0.46L64.67,-1.92L64.61,-3.56L64.55,-5.39L64.49,-7.44L64.45,-9.72L64.42,-12.26L64.40,-15.08L64.40,-16.60L64.40,-54.30L64.44,-56.71L64.75,-60.71L65.34,-63.75L66.17,-65.97L67.21,-67.50L68.42,-68.49L69.78,-69.08L71.24,-69.40L72.00,-69.50L72.00,-70.00Z   " class=""></path></g><g transform="translate(73.500,0)" fill="#000000" stroke="#000000" stroke-width="0"><path d="M49.70,-10.10L49.13,-9.39L47.73,-8.09L46.03,-6.96L44.10,-6.00L42.01,-5.20L39.84,-4.56L37.65,-4.09L35.53,-3.78L33.53,-3.62L32.60,-3.60L31.49,-3.63L29.34,-3.88L27.30,-4.35L25.38,-5.05L23.57,-5.96L21.88,-7.07L20.33,-8.37L18.90,-9.84L17.61,-11.48L16.46,-13.26L15.46,-15.19L14.61,-17.25L13.92,-19.43L13.39,-21.71L13.03,-24.08L12.83,-26.54L12.80,-27.80L42.00,-27.80L43.47,-27.91L45.95,-28.72L47.79,-30.19L48.99,-32.18L49.53,-34.54L49.40,-37.12L48.58,-39.78L47.08,-42.36L44.86,-44.72L41.94,-46.71L38.28,-48.18L33.88,-48.99L31.40,-49.10L30.27,-49.08L28.02,-48.91L25.81,-48.59L23.66,-48.11L21.56,-47.47L19.53,-46.68L17.58,-45.75L15.72,-44.67L13.95,-43.45L12.30,-42.09L10.77,-40.60L9.36,-38.97L8.10,-37.23L6.99,-35.35L6.03,-33.36L5.25,-31.25L4.65,-29.03L4.24,-26.70L4.03,-24.26L4.00,-23.00L4.03,-21.67L4.26,-19.11L4.72,-16.70L5.39,-14.44L6.25,-12.33L7.31,-10.37L8.53,-8.56L9.92,-6.91L11.46,-5.41L13.14,-4.08L14.94,-2.90L16.86,-1.89L18.88,-1.04L20.99,-0.36L23.17,0.16L25.43,0.50L27.73,0.68L28.90,0.70L30.16,0.68L32.62,0.48L34.97,0.11L37.21,-0.43L39.33,-1.11L41.31,-1.94L43.15,-2.89L44.83,-3.95L46.35,-5.10L47.69,-6.34L48.84,-7.65L49.80,-9.00L50.20,-9.70Z   M27.70,-47.30L29.64,-47.17L33.06,-46.24L35.90,-44.56L38.15,-42.37L39.82,-39.85L40.91,-37.23L41.42,-34.70L41.35,-32.49L40.72,-30.80L39.51,-29.84L38.70,-29.70L12.80,-29.40L12.89,-30.79L13.24,-33.41L13.79,-35.83L14.55,-38.04L15.49,-40.03L16.62,-41.79L17.92,-43.32L19.38,-44.62L21.00,-45.66L22.75,-46.46L24.64,-46.99L26.65,-47.27L27.70,-47.30Z   " class=""></path></g><g transform="translate(126.900,0)" fill="#000000" stroke="#000000" stroke-width="0"><path d="M61.50,-48.60L61.50,-48.20L62.41,-47.88L64.18,-47.09L65.70,-45.94L66.75,-44.26L67.07,-41.87L66.44,-38.61L65.70,-36.60L54.70,-9.90L42.80,-36.60L41.99,-38.62L41.26,-41.96L41.58,-44.44L42.73,-46.19L44.53,-47.34L46.77,-48.01L48.00,-48.20L48.00,-48.60L28.30,-48.60L31.90,-41.80L37.20,-30.10L28.90,-10.00L17.10,-36.50L16.29,-38.52L15.56,-41.86L15.87,-44.34L17.01,-46.09L18.79,-47.24L21.00,-47.91L22.20,-48.10L22.20,-48.50L2.50,-48.50L6.10,-41.70L25.40,1.00L25.90,1.00L38.10,-28.00L51.20,0.90L51.60,0.90L67.50,-36.50L68.27,-38.24L69.72,-41.16L71.06,-43.42L72.34,-45.12L73.58,-46.37L74.83,-47.27L76.13,-47.93L76.80,-48.20L76.80,-48.60Z   " class=""></path></g><g transform="translate(205.700,0)" fill="#000000" stroke="#000000" stroke-width="0"><path d="" class=""></path></g><g transform="translate(225.700,0)" fill="#000000" stroke="#000000" stroke-width="0"><path d="M61.10,-19.00L60.29,-17.83L58.74,-15.60L57.26,-13.52L55.84,-11.60L54.46,-9.83L53.08,-8.23L51.69,-6.79L50.27,-5.52L48.80,-4.43L47.24,-3.50L45.59,-2.76L43.81,-2.19L41.90,-1.82L39.81,-1.62L38.70,-1.60L18.30,-1.60L18.30,-34.20L33.90,-34.20L35.51,-34.17L38.35,-33.97L40.72,-33.54L42.68,-32.89L44.29,-31.99L45.61,-30.83L46.72,-29.41L47.66,-27.71L48.50,-25.71L48.90,-24.60L48.90,-45.40L48.50,-44.29L47.66,-42.29L46.72,-40.59L45.61,-39.17L44.29,-38.01L42.68,-37.11L40.72,-36.46L38.35,-36.03L35.51,-35.83L33.90,-35.80L18.30,-35.80L18.30,-68.40L36.30,-68.40L37.50,-68.38L39.73,-68.20L41.77,-67.85L43.64,-67.33L45.36,-66.64L46.97,-65.79L48.48,-64.78L49.91,-63.60L51.29,-62.27L52.64,-60.78L53.99,-59.14L55.36,-57.35L56.77,-55.42L57.50,-54.40L57.90,-54.60L54.70,-70.00L1.50,-70.00L1.50,-69.50L2.71,-69.33L4.95,-68.84L6.84,-68.06L8.23,-66.92L9.00,-65.31L9.10,-64.30L9.10,-7.70L9.00,-6.66L8.23,-4.84L6.84,-3.31L4.95,-2.04L2.71,-0.97L1.50,-0.50L1.50,0.00L52.70,0.00L56.10,2.20L56.70,0.00L61.50,-18.80Z   " class=""></path></g><g transform="translate(288.700,0)" fill="#000000" stroke="#000000" stroke-width="0"><path d="M42.80,0.00L55.50,0.00L54.66,-0.60L53.33,-1.87L52.43,-3.38L51.88,-5.29L51.63,-7.78L51.60,-9.30L51.60,-30.90L51.56,-32.73L51.26,-36.02L50.69,-38.86L49.88,-41.27L48.85,-43.29L47.65,-44.96L46.29,-46.29L44.82,-47.32L43.25,-48.09L41.63,-48.62L39.97,-48.94L38.32,-49.08L37.50,-49.10L36.39,-49.07L34.22,-48.85L32.11,-48.43L30.06,-47.83L28.07,-47.10L26.14,-46.24L24.28,-45.29L22.48,-44.28L20.76,-43.22L19.10,-42.15L17.53,-41.10L16.02,-40.08L15.30,-39.60L15.30,-41.60L15.80,-49.00L1.00,-47.50L1.00,-47.10L2.08,-46.96L4.31,-46.46L6.31,-45.73L7.10,-45.30L7.10,-6.90L6.50,0.00L19.20,0.00L18.36,-0.60L17.03,-1.87L16.13,-3.38L15.58,-5.29L15.33,-7.78L15.30,-9.30L15.30,-37.50L16.23,-38.10L18.04,-39.30L19.83,-40.46L21.61,-41.56L23.39,-42.55L25.20,-43.41L27.05,-44.11L28.96,-44.60L30.96,-44.87L32.00,-44.90L32.90,-44.87L34.72,-44.65L36.50,-44.14L38.18,-43.32L39.72,-42.11L41.07,-40.48L42.15,-38.38L42.93,-35.74L43.35,-32.54L43.40,-30.70L43.40,-6.90Z   " class=""></path></g><g transform="translate(347.200,0)" fill="#000000" stroke="#000000" stroke-width="0"><path d="M34.90,-49.10L33.37,-49.08L30.42,-48.90L27.63,-48.54L25.00,-48.02L22.52,-47.34L20.20,-46.51L18.03,-45.53L16.03,-44.42L14.17,-43.19L12.48,-41.83L10.94,-40.37L9.55,-38.80L8.32,-37.13L7.24,-35.38L6.32,-33.55L5.55,-31.64L4.94,-29.68L4.48,-27.65L4.17,-25.58L4.02,-23.47L4.00,-22.40L4.03,-21.12L4.24,-18.66L4.65,-16.33L5.26,-14.14L6.05,-12.09L7.03,-10.18L8.16,-8.42L9.46,-6.80L10.91,-5.34L12.50,-4.02L14.23,-2.87L16.08,-1.87L18.05,-1.03L20.12,-0.35L22.29,0.16L24.56,0.51L26.90,0.68L28.10,0.70L29.37,0.68L31.80,0.49L34.09,0.12L36.22,-0.42L38.20,-1.12L40.01,-1.97L41.65,-2.96L42.40,-3.50L42.40,5.10L42.35,6.26L41.92,8.55L41.10,10.72L39.91,12.72L38.38,14.46L36.55,15.87L34.43,16.89L32.07,17.43L30.80,17.50L30.25,17.49L28.91,17.42L27.32,17.18L25.55,16.68L23.68,15.84L21.78,14.57L19.93,12.78L18.20,10.36L17.40,8.90L8.60,11.50L9.31,12.70L10.89,14.80L12.62,16.53L14.46,17.93L16.35,19.01L18.24,19.82L20.08,20.38L21.81,20.72L23.39,20.88L24.10,20.90L25.10,20.86L27.22,20.60L29.47,20.09L31.79,19.36L34.15,18.46L36.50,17.41L38.81,16.23L41.02,14.96L43.11,13.63L45.03,12.27L46.73,10.90L48.17,9.56L49.32,8.27L50.12,7.07L50.55,5.99L50.60,5.50L50.60,-45.40L49.74,-45.85L47.99,-46.67L46.21,-47.37L44.37,-47.94L42.46,-48.40L40.45,-48.75L38.33,-48.97L36.08,-49.09L34.90,-49.10Z   M33.80,-2.20L32.69,-2.23L30.53,-2.49L28.46,-2.99L26.47,-3.72L24.58,-4.68L22.80,-5.84L21.14,-7.20L19.61,-8.75L18.20,-10.47L16.95,-12.35L15.84,-14.38L14.90,-16.55L14.13,-18.85L13.54,-21.25L13.13,-23.77L12.93,-26.37L12.90,-27.70L12.93,-29.04L13.15,-31.62L13.58,-34.03L14.23,-36.27L15.08,-38.33L16.13,-40.20L17.38,-41.88L18.81,-43.34L20.42,-44.58L22.21,-45.60L24.18,-46.37L26.31,-46.90L28.60,-47.17L29.80,-47.20L31.00,-47.17L33.24,-46.90L35.28,-46.39L37.15,-45.66L38.84,-44.75L40.38,-43.67L41.76,-42.45L42.40,-41.80L42.40,-6.10L41.81,-5.41L40.50,-4.20L38.96,-3.25L37.15,-2.59L35.01,-2.24L33.80,-2.20Z   " class=""></path></g><g transform="translate(403.300,0)" fill="#000000" stroke="#000000" stroke-width="0"><path d="M15.10,-9.70L15.10,-72.30L15.60,-76.00L-1.00,-68.20L-1.00,-67.60L1.12,-68.24L4.22,-68.98L6.04,-68.77L6.81,-67.30L6.90,-66.00L6.90,-6.20L6.00,0.00L20.80,0.00L20.80,-0.40L19.43,-0.78L17.36,-1.87L16.07,-3.44L15.39,-5.52L15.12,-8.16L15.10,-9.70Z   " class=""></path></g><g transform="translate(425.600,0)" fill="#000000" stroke="#000000" stroke-width="0"><path d="M50.60,-8.20L50.60,-45.40L49.74,-45.85L47.99,-46.67L46.21,-47.37L44.37,-47.94L42.46,-48.40L40.45,-48.75L38.33,-48.97L36.08,-49.09L34.90,-49.10L33.37,-49.08L30.42,-48.90L27.63,-48.54L25.00,-48.02L22.52,-47.34L20.20,-46.51L18.03,-45.53L16.03,-44.42L14.17,-43.19L12.48,-41.83L10.94,-40.37L9.55,-38.80L8.32,-37.13L7.24,-35.38L6.32,-33.55L5.55,-31.64L4.94,-29.68L4.48,-27.65L4.17,-25.58L4.02,-23.47L4.00,-22.40L4.03,-21.12L4.24,-18.66L4.65,-16.33L5.26,-14.14L6.05,-12.09L7.03,-10.18L8.16,-8.42L9.46,-6.80L10.91,-5.34L12.50,-4.02L14.23,-2.87L16.08,-1.87L18.05,-1.03L20.12,-0.35L22.29,0.16L24.56,0.51L26.90,0.68L28.10,0.70L29.26,0.68L31.49,0.52L33.60,0.20L35.59,-0.26L37.45,-0.86L39.18,-1.59L40.00,-2.00L39.90,-1.90L54.50,1.20L54.50,0.90L53.66,0.31L52.33,-0.93L51.43,-2.38L50.88,-4.23L50.63,-6.69L50.60,-8.20Z   M12.90,-27.70L12.93,-29.04L13.15,-31.62L13.58,-34.03L14.23,-36.27L15.08,-38.33L16.13,-40.20L17.38,-41.88L18.81,-43.34L20.42,-44.58L22.21,-45.60L24.18,-46.37L26.31,-46.90L28.60,-47.17L29.80,-47.20L31.00,-47.17L33.24,-46.90L35.28,-46.39L37.15,-45.66L38.84,-44.75L40.38,-43.67L41.76,-42.45L42.40,-41.80L42.40,-9.50L42.38,-8.31L42.27,-6.39L42.20,-5.60L41.61,-4.96L40.32,-3.85L38.82,-2.97L37.06,-2.36L34.98,-2.04L33.80,-2.00L32.76,-2.03L30.72,-2.26L28.76,-2.71L26.87,-3.38L25.07,-4.24L23.37,-5.29L21.76,-6.52L20.27,-7.93L18.89,-9.49L17.63,-11.20L16.51,-13.04L15.52,-15.02L14.68,-17.11L13.99,-19.31L13.46,-21.61L13.11,-23.99L12.92,-26.45L12.90,-27.70Z   " class=""></path></g><g transform="translate(484.100,0)" fill="#000000" stroke="#000000" stroke-width="0"><path d="M42.80,0.00L55.50,0.00L54.66,-0.60L53.33,-1.87L52.43,-3.38L51.88,-5.29L51.63,-7.78L51.60,-9.30L51.60,-30.90L51.56,-32.73L51.26,-36.02L50.69,-38.86L49.88,-41.27L48.85,-43.29L47.65,-44.96L46.29,-46.29L44.82,-47.32L43.25,-48.09L41.63,-48.62L39.97,-48.94L38.32,-49.08L37.50,-49.10L36.39,-49.07L34.22,-48.85L32.11,-48.43L30.06,-47.83L28.07,-47.10L26.14,-46.24L24.28,-45.29L22.48,-44.28L20.76,-43.22L19.10,-42.15L17.53,-41.10L16.02,-40.08L15.30,-39.60L15.30,-41.60L15.80,-49.00L1.00,-47.50L1.00,-47.10L2.08,-46.96L4.31,-46.46L6.31,-45.73L7.10,-45.30L7.10,-6.90L6.50,0.00L19.20,0.00L18.36,-0.60L17.03,-1.87L16.13,-3.38L15.58,-5.29L15.33,-7.78L15.30,-9.30L15.30,-37.50L16.23,-38.10L18.04,-39.30L19.83,-40.46L21.61,-41.56L23.39,-42.55L25.20,-43.41L27.05,-44.11L28.96,-44.60L30.96,-44.87L32.00,-44.90L32.90,-44.87L34.72,-44.65L36.50,-44.14L38.18,-43.32L39.72,-42.11L41.07,-40.48L42.15,-38.38L42.93,-35.74L43.35,-32.54L43.40,-30.70L43.40,-6.90Z   " class=""></path></g><g transform="translate(542.600,0)" fill="#000000" stroke="#000000" stroke-width="0"><path d="M50.60,-8.20L50.60,-72.30L51.10,-76.00L34.60,-68.20L34.60,-67.60L36.69,-68.24L39.75,-68.98L41.54,-68.77L42.32,-67.30L42.40,-66.00L42.40,-48.40L41.53,-48.57L39.75,-48.84L37.90,-49.01L35.93,-49.09L34.90,-49.10L33.37,-49.08L30.42,-48.90L27.63,-48.54L25.00,-48.02L22.52,-47.34L20.20,-46.51L18.03,-45.53L16.03,-44.42L14.17,-43.19L12.48,-41.83L10.94,-40.37L9.55,-38.80L8.32,-37.13L7.24,-35.38L6.32,-33.55L5.55,-31.64L4.94,-29.68L4.48,-27.65L4.17,-25.58L4.02,-23.47L4.00,-22.40L4.03,-21.12L4.24,-18.66L4.65,-16.33L5.26,-14.14L6.05,-12.09L7.03,-10.18L8.16,-8.42L9.46,-6.80L10.91,-5.34L12.50,-4.02L14.23,-2.87L16.08,-1.87L18.05,-1.03L20.12,-0.35L22.29,0.16L24.56,0.51L26.90,0.68L28.10,0.70L29.26,0.68L31.49,0.52L33.60,0.20L35.59,-0.26L37.45,-0.86L39.18,-1.59L40.00,-2.00L39.90,-1.90L54.50,1.20L54.50,0.90L53.66,0.31L52.33,-0.93L51.43,-2.38L50.88,-4.23L50.63,-6.69L50.60,-8.20Z   M12.90,-27.70L12.93,-29.04L13.15,-31.62L13.58,-34.03L14.23,-36.27L15.08,-38.33L16.13,-40.20L17.38,-41.88L18.81,-43.34L20.42,-44.58L22.21,-45.60L24.18,-46.37L26.31,-46.90L28.60,-47.17L29.80,-47.20L31.00,-47.17L33.24,-46.90L35.28,-46.39L37.15,-45.66L38.84,-44.75L40.38,-43.67L41.76,-42.45L42.40,-41.80L42.40,-9.50L42.38,-8.31L42.27,-6.39L42.20,-5.60L41.61,-4.96L40.32,-3.85L38.82,-2.97L37.06,-2.36L34.98,-2.04L33.80,-2.00L32.76,-2.03L30.72,-2.26L28.76,-2.71L26.87,-3.38L25.07,-4.24L23.37,-5.29L21.76,-6.52L20.27,-7.93L18.89,-9.49L17.63,-11.20L16.51,-13.04L15.52,-15.02L14.68,-17.11L13.99,-19.31L13.46,-21.61L13.11,-23.99L12.92,-26.45L12.90,-27.70Z   " class=""></path></g><g transform="translate(600.600,0)" fill="#000000" stroke="#000000" stroke-width="0"><path d="" class=""></path></g><g transform="translate(620.600,0)" fill="#000000" stroke="#000000" stroke-width="0"><path d="M36.60,-70.00L1.50,-70.00L1.50,-69.50L2.71,-69.33L4.95,-68.84L6.84,-68.06L8.23,-66.92L9.00,-65.31L9.10,-64.30L9.10,-5.70L9.00,-4.69L8.23,-3.08L6.84,-1.94L4.95,-1.16L2.71,-0.67L1.50,-0.50L1.50,0.00L25.90,0.00L25.90,-0.50L24.69,-0.67L22.45,-1.16L20.56,-1.94L19.17,-3.08L18.40,-4.69L18.30,-5.70L18.30,-25.90L32.00,-25.90L33.38,-25.92L36.05,-26.07L38.62,-26.37L41.09,-26.80L43.44,-27.38L45.67,-28.09L47.79,-28.92L49.78,-29.88L51.64,-30.96L53.37,-32.15L54.97,-33.45L56.42,-34.86L57.73,-36.36L58.89,-37.97L59.89,-39.66L60.74,-41.44L61.43,-43.30L61.95,-45.24L62.30,-47.25L62.48,-49.34L62.50,-50.40L62.47,-51.61L62.23,-53.91L61.76,-56.06L61.07,-58.05L60.17,-59.89L59.05,-61.57L57.74,-63.10L56.23,-64.48L54.53,-65.71L52.65,-66.78L50.61,-67.69L48.39,-68.46L46.02,-69.07L43.51,-69.52L40.84,-69.83L38.05,-69.98L36.60,-70.00Z   M34.00,-27.80L33.13,-27.81L31.32,-27.87L29.45,-27.98L27.51,-28.17L25.53,-28.42L23.50,-28.75L21.43,-29.15L19.35,-29.63L18.30,-29.90L18.30,-68.40L31.40,-68.40L33.28,-68.36L36.71,-68.08L39.74,-67.54L42.39,-66.76L44.68,-65.76L46.65,-64.56L48.31,-63.17L49.69,-61.62L50.81,-59.94L51.70,-58.13L52.37,-56.22L52.87,-54.23L53.20,-52.17L53.40,-50.08L53.49,-47.96L53.50,-46.90L53.48,-45.31L53.30,-42.39L52.94,-39.80L52.39,-37.50L51.65,-35.50L50.72,-33.77L49.57,-32.30L48.22,-31.06L46.66,-30.05L44.88,-29.25L42.87,-28.65L40.63,-28.22L38.16,-27.94L35.45,-27.82L34.00,-27.80Z   " class=""></path></g><g transform="translate(686.100,0)" fill="#000000" stroke="#000000" stroke-width="0"><path d="M42.00,-71.40L40.81,-71.38L38.46,-71.26L36.15,-71.02L33.88,-70.66L31.67,-70.18L29.51,-69.58L27.41,-68.88L25.37,-68.06L23.40,-67.13L21.50,-66.09L19.68,-64.95L17.94,-63.70L16.28,-62.35L14.72,-60.90L13.24,-59.35L11.87,-57.70L10.60,-55.96L9.44,-54.12L8.38,-52.20L7.45,-50.18L6.63,-48.07L5.94,-45.88L5.38,-43.61L4.95,-41.25L4.67,-38.81L4.52,-36.29L4.50,-35.00L4.52,-33.71L4.67,-31.19L4.95,-28.75L5.38,-26.39L5.94,-24.12L6.63,-21.93L7.45,-19.82L8.38,-17.80L9.44,-15.88L10.60,-14.04L11.87,-12.30L13.24,-10.65L14.72,-9.10L16.28,-7.65L17.94,-6.30L19.68,-5.05L21.50,-3.91L23.40,-2.87L25.37,-1.94L27.41,-1.12L29.51,-0.42L31.67,0.18L33.88,0.66L36.15,1.02L38.46,1.26L40.81,1.38L42.00,1.40L43.18,1.38L45.51,1.26L47.80,1.02L50.05,0.66L52.24,0.18L54.39,-0.42L56.48,-1.12L58.50,-1.94L60.46,-2.87L62.35,-3.91L64.16,-5.05L65.90,-6.30L67.55,-7.65L69.11,-9.10L70.57,-10.65L71.94,-12.30L73.21,-14.04L74.37,-15.88L75.42,-17.80L76.35,-19.82L77.17,-21.93L77.86,-24.12L78.42,-26.39L78.85,-28.75L79.13,-31.19L79.28,-33.71L79.30,-35.00L79.28,-36.29L79.13,-38.81L78.85,-41.25L78.42,-43.61L77.86,-45.88L77.17,-48.07L76.35,-50.18L75.42,-52.20L74.37,-54.12L73.21,-55.96L71.94,-57.70L70.57,-59.35L69.11,-60.90L67.55,-62.35L65.90,-63.70L64.16,-64.95L62.35,-66.09L60.46,-67.13L58.50,-68.06L56.48,-68.88L54.39,-69.58L52.24,-70.18L50.05,-70.66L47.80,-71.02L45.51,-71.26L43.18,-71.38L42.00,-71.40Z   M45.90,-0.40L44.84,-0.42L42.77,-0.60L40.74,-0.94L38.77,-1.45L36.85,-2.11L35.00,-2.92L33.20,-3.87L31.47,-4.96L29.80,-6.17L28.20,-7.51L26.68,-8.95L25.23,-10.51L23.86,-12.16L22.56,-13.91L21.35,-15.74L20.23,-17.66L19.20,-19.64L18.25,-21.69L17.40,-23.80L16.65,-25.97L16.00,-28.17L15.44,-30.42L15.00,-32.69L14.66,-34.99L14.43,-37.31L14.31,-39.63L14.30,-40.80L14.32,-42.13L14.47,-44.73L14.77,-47.23L15.22,-49.62L15.81,-51.92L16.53,-54.10L17.39,-56.16L18.38,-58.09L19.50,-59.90L20.74,-61.58L22.09,-63.11L23.57,-64.49L25.15,-65.72L26.84,-66.79L28.64,-67.70L30.53,-68.44L32.52,-69.00L34.61,-69.38L36.78,-69.58L37.90,-69.60L38.96,-69.58L41.03,-69.40L43.06,-69.06L45.03,-68.56L46.95,-67.90L48.81,-67.09L50.62,-66.14L52.35,-65.06L54.02,-63.85L55.63,-62.53L57.16,-61.08L58.61,-59.53L59.99,-57.88L61.29,-56.14L62.50,-54.31L63.63,-52.41L64.67,-50.43L65.62,-48.38L66.48,-46.28L67.23,-44.12L67.89,-41.92L68.45,-39.68L68.90,-37.40L69.24,-35.11L69.47,-32.79L69.59,-30.47L69.60,-29.30L69.58,-27.96L69.43,-25.35L69.12,-22.84L68.67,-20.43L68.08,-18.13L67.35,-15.94L66.48,-13.87L65.48,-11.93L64.36,-10.11L63.11,-8.44L61.75,-6.90L60.27,-5.52L58.68,-4.28L56.98,-3.21L55.18,-2.30L53.28,-1.56L51.28,-1.00L49.19,-0.62L47.02,-0.42L45.90,-0.40Z   " class=""></path></g><g transform="translate(769.900,0)" fill="#000000" stroke="#000000" stroke-width="0"><path d="M34.10,-39.40L32.89,-39.68L30.50,-40.29L28.18,-40.96L25.93,-41.71L23.80,-42.58L21.80,-43.57L19.96,-44.70L18.31,-46.00L16.87,-47.48L15.67,-49.16L14.73,-51.06L14.08,-53.20L13.74,-55.60L13.70,-56.90L13.73,-58.08L14.01,-60.35L14.58,-62.44L15.47,-64.34L16.69,-66.00L18.26,-67.39L20.20,-68.49L22.53,-69.25L25.27,-69.65L26.80,-69.70L27.93,-69.67L30.14,-69.47L32.29,-69.05L34.37,-68.44L36.34,-67.63L38.20,-66.63L39.93,-65.44L41.50,-64.07L42.90,-62.53L44.11,-60.80L45.12,-58.91L45.90,-56.85L46.44,-54.63L46.72,-52.25L46.71,-49.72L46.60,-48.40L55.30,-62.30L54.68,-62.88L53.38,-64.02L52.00,-65.10L50.53,-66.12L48.97,-67.08L47.31,-67.96L45.55,-68.76L43.68,-69.47L41.71,-70.08L39.61,-70.59L37.40,-70.98L35.06,-71.24L32.59,-71.38L31.30,-71.40L29.86,-71.38L27.07,-71.20L24.44,-70.86L21.96,-70.35L19.64,-69.68L17.49,-68.86L15.50,-67.89L13.69,-66.78L12.06,-65.53L10.61,-64.16L9.36,-62.65L8.30,-61.03L7.44,-59.30L6.79,-57.45L6.35,-55.50L6.13,-53.46L6.10,-52.40L6.11,-51.66L6.23,-50.15L6.47,-48.62L6.85,-47.09L7.39,-45.56L8.09,-44.04L8.99,-42.53L10.08,-41.05L11.38,-39.61L12.91,-38.21L14.68,-36.86L16.71,-35.58L19.01,-34.37L21.60,-33.23L24.48,-32.18L27.68,-31.24L29.40,-30.80L30.75,-30.48L33.35,-29.82L35.78,-29.13L38.05,-28.39L40.13,-27.58L42.02,-26.67L43.71,-25.65L45.19,-24.49L46.45,-23.18L47.48,-21.70L48.26,-20.01L48.79,-18.11L49.07,-15.97L49.10,-14.80L49.07,-13.76L48.86,-11.69L48.41,-9.65L47.68,-7.71L46.66,-5.90L45.31,-4.28L43.60,-2.88L41.51,-1.76L39.00,-0.97L36.05,-0.55L34.40,-0.50L33.19,-0.53L30.81,-0.73L28.47,-1.14L26.21,-1.75L24.05,-2.55L22.01,-3.54L20.11,-4.71L18.36,-6.07L16.80,-7.61L15.45,-9.33L14.32,-11.21L13.43,-13.26L12.82,-15.48L12.49,-17.85L12.48,-20.38L12.60,-21.70L4.00,-8.00L4.59,-7.45L5.86,-6.37L7.22,-5.33L8.69,-4.34L10.27,-3.40L11.94,-2.53L13.70,-1.72L15.57,-1.00L17.53,-0.35L19.58,0.20L21.72,0.66L23.95,1.02L26.27,1.26L28.67,1.38L29.90,1.40L31.43,1.38L34.36,1.18L37.11,0.80L39.67,0.24L42.06,-0.48L44.27,-1.36L46.29,-2.38L48.14,-3.54L49.80,-4.83L51.28,-6.22L52.58,-7.72L53.69,-9.32L54.62,-10.99L55.36,-12.74L55.92,-14.56L56.29,-16.42L56.48,-18.33L56.50,-19.30L56.49,-20.00L56.39,-21.42L56.16,-22.88L55.79,-24.36L55.25,-25.85L54.53,-27.35L53.59,-28.83L52.42,-30.29L51.00,-31.71L49.31,-33.10L47.32,-34.42L45.01,-35.68L42.36,-36.86L39.34,-37.95L35.95,-38.95L34.10,-39.40Z   " class=""></path></g></g></g></g><g transform="translate(0 0)"><g><g fill="#000000" stroke="none" x="0" y="0" transform="translate(-3.428456624576415, -1.5660606307212757) scale(0.3340929345538721)"><path d="M103.3 16.316c-2.864-3.864-9.612-3.644-18.136-0.812-7.244-5.932-16.496-9.504-26.572-9.504-23.16 0-42 18.84-42 42 0 5.288 1.024 10.336 2.816 15.004-6.62 8.46-9.78 15.992-6.568 20.336 1.464 1.968 3.948 2.96 7.4 2.96 0.708 0 1.456-0.040 2.248-0.124 1.096-0.116 1.896-1.1 1.776-2.2s-1.076-1.892-2.2-1.776c-3.040 0.308-5.176-0.12-6.012-1.248-1.504-2.032 0.264-7.064 5.208-13.796 6.976 13.544 21.076 22.844 37.332 22.844 23.16 0 42-18.84 42-42 0-11.424-4.6-21.788-12.028-29.368 6.108-1.752 10.228-1.68 11.52 0.064 0.96 1.3 0.4 3.612-0.244 5.324-0.392 1.032 0.136 2.184 1.168 2.576 1.044 0.38 2.188-0.132 2.576-1.172 1.44-3.84 1.344-6.9-0.284-9.108zM89.384 25.824c4.144 5.74 6.712 12.664 7.104 20.168h-16.016c-0.268-7.064-1.904-13.864-4.704-20h12.82c0.284 0 0.556-0.064 0.796-0.168zM89.392 70.164c-0.248-0.104-0.516-0.172-0.8-0.172h-12.796c2.788-6.14 4.42-12.936 4.68-20h16.016c-0.392 7.508-2.956 14.432-7.1 20.172zM58.592 85.264c-4.16-3-7.728-6.824-10.556-11.272h21.104c-2.824 4.448-6.392 8.272-10.548 11.272zM45.72 69.992c-3.024-6.028-4.736-12.888-5.020-20h35.776c-0.284 7.112-1.996 13.972-5.020 20h-25.736zM27.796 25.824c0.244 0.104 0.512 0.168 0.796 0.168h12.816c-2.704 5.92-4.308 12.464-4.66 19.26-0.284 0.248-0.576 0.488-0.86 0.74h-15.196c0.396-7.504 2.964-14.428 7.104-20.168zM58.592 10.772c4.14 2.988 7.7 6.792 10.524 11.22h-21.052c2.824-4.424 6.384-8.232 10.528-11.22zM71.432 25.992c3.032 6.024 4.752 12.884 5.044 20h-34.444c2.596-2.152 5.368-4.34 8.348-6.548 7.568-5.608 14.644-10.040 20.984-13.452h0.068zM63.352 25.992c-5.176 3.088-10.392 6.556-15.36 10.236-2.364 1.752-4.692 3.58-6.976 5.44 0.712-5.56 2.32-10.88 4.732-15.676h17.604zM64.692 10.536c5.912 0.96 11.356 3.272 16.024 6.628-2.496 1.008-5.088 2.188-7.752 3.524-2.312-3.788-5.064-7.232-8.272-10.152zM52.488 10.536c-3.572 3.252-6.58 7.148-9.028 11.456h-12.496c5.604-5.956 13.096-10.084 21.524-11.456zM20.692 49.992h10.808c-3.352 3.156-6.452 6.336-9.148 9.436-0.948-3-1.492-6.172-1.66-9.436zM36.736 50.556c0.324 6.86 1.932 13.46 4.648 19.436h-12.792c-0.288 0-0.56 0.068-0.804 0.172-1.468-2.036-2.744-4.216-3.788-6.524 3.288-3.98 7.528-8.404 12.736-13.084zM30.948 73.992h12.484c2.444 4.308 5.448 8.212 9.012 11.464-8.416-1.376-15.896-5.512-21.496-11.464zM64.736 85.456c3.564-3.252 6.568-7.156 9.012-11.464h12.488c-5.6 5.952-13.080 10.088-21.5 11.464zM86.22 21.992h-6.732c1.664-0.736 3.256-1.388 4.756-1.944 0.684 0.628 1.344 1.272 1.976 1.944z" fill="#000000" fill-rule="nonzero" stroke="none" stroke-width="1px" stroke-linecap="butt" stroke-linejoin="miter" stroke-miterlimit="4" stroke-dasharray="none" class=""></path></g></g></g></g></g></g></svg>